<?xml version="1.0" standalone="no"?>
<!DOCTYPE svg PUBLIC "-//W3C//DTD SVG 20010904//EN"
 "http://www.w3.org/TR/2001/REC-SVG-20010904/DTD/svg10.dtd">
<svg version="1.0" xmlns="http://www.w3.org/2000/svg"
 width="140.000000pt" height="73.000000pt" viewBox="0 0 140.000000 73.000000"
 preserveAspectRatio="xMidYMid meet">

<g transform="translate(0.000000,73.000000) scale(0.100000,-0.100000)"
fill="#000000" stroke="none">
<path d="M580 694 c-56 -10 -148 -48 -190 -79 -39 -27 -57 -33 -127 -39 -71
-5 -152 -24 -116 -25 7 -1 -5 -19 -27 -42 -23 -24 -46 -39 -54 -36 -16 6 -26
-12 -26 -49 0 -24 25 -46 67 -58 20 -6 21 -4 17 31 -9 74 64 143 138 129 19
-3 48 -20 64 -37 25 -26 29 -38 28 -85 l0 -54 247 0 247 0 -5 41 c-10 73 46
139 119 139 63 0 126 -79 112 -143 l-6 -30 31 22 c17 12 31 28 32 34 3 39 -4
114 -12 129 -24 45 -146 74 -218 52 -25 -8 -68 -14 -96 -14 l-50 0 0 -57 c0
-32 -6 -79 -14 -106 l-14 -47 -155 2 -155 3 -14 40 c-8 22 -16 65 -20 96 -5
53 -4 56 26 81 69 59 237 94 329 69 23 -7 57 -25 75 -41 32 -28 35 -28 76 -16
41 12 41 12 23 30 -39 34 -123 58 -217 61 -49 2 -101 1 -115 -1z m524 -156
c17 -24 22 -78 7 -78 -7 0 -41 75 -41 93 0 15 19 6 34 -15z"/>
<path d="M516 573 l-129 -4 7 -53 c3 -30 12 -72 19 -93 l12 -38 147 -3 146 -3
11 33 c5 18 13 50 16 70 6 32 5 37 -16 40 -32 4 -37 28 -5 28 18 0 24 4 20 15
-5 11 -19 14 -53 13 -25 -1 -104 -4 -175 -5z"/>
<path d="M84 518 l-29 -33 35 30 c19 17 37 31 39 33 2 1 0 2 -5 2 -6 0 -23
-15 -40 -32z"/>
<path d="M200 460 c-16 -10 -8 -23 15 -26 17 -2 19 5 7 23 -5 8 -13 9 -22 3z"/>
<path d="M257 450 c-3 -12 0 -17 11 -16 21 4 27 22 8 29 -8 3 -16 -2 -19 -13z"/>
<path d="M914 459 c-3 -6 -1 -16 5 -22 8 -8 11 -5 11 11 0 24 -5 28 -16 11z"/>
<path d="M974 454 c3 -9 6 -17 6 -20 0 -2 7 -1 15 2 12 5 13 10 4 20 -16 19
-33 18 -25 -2z"/>
<path d="M1045 420 c3 -5 8 -10 11 -10 2 0 4 5 4 10 0 6 -5 10 -11 10 -5 0 -7
-4 -4 -10z"/>
<path d="M176 395 c-3 -8 -1 -15 4 -15 13 0 22 18 11 24 -5 3 -11 -1 -15 -9z"/>
<path d="M276 401 c-3 -5 1 -14 9 -21 13 -10 15 -9 15 9 0 21 -14 28 -24 12z"/>
<path d="M897 389 c-4 -16 -3 -18 9 -8 7 6 11 15 8 20 -8 13 -11 11 -17 -12z"/>
<path d="M996 402 c-3 -5 -1 -14 3 -20 6 -10 10 -10 20 1 9 12 8 16 -3 20 -9
4 -17 3 -20 -1z"/>
<path d="M226 363 c-11 -11 -6 -23 9 -23 8 0 15 4 15 9 0 13 -16 22 -24 14z"/>
<path d="M947 363 c-11 -11 -8 -23 6 -23 8 0 14 7 14 15 0 16 -9 19 -20 8z"/>
<path d="M40 202 c0 -26 -5 -53 -11 -59 -8 -8 -8 -13 0 -17 6 -4 11 -27 11
-52 l0 -44 53 0 c40 0 58 5 70 18 20 22 22 63 5 80 -9 9 -9 15 0 24 17 17 15
44 -4 73 -14 21 -24 25 -70 25 l-54 0 0 -48z m101 2 c19 -23 -1 -48 -40 -52
-30 -3 -31 -2 -31 32 0 33 2 36 29 36 16 0 34 -7 42 -16z m4 -114 c0 -22 -5
-25 -37 -28 -36 -3 -38 -2 -38 28 0 30 2 31 38 28 32 -3 37 -6 37 -28z"/>
<path d="M238 195 c-5 -94 2 -165 18 -165 10 0 14 13 14 43 0 24 5 48 11 54 8
8 8 13 0 17 -6 4 -11 29 -11 57 0 35 -4 49 -14 49 -10 0 -15 -16 -18 -55z"/>
<path d="M374 229 c-10 -12 -19 -31 -19 -43 -1 -11 -4 -27 -8 -33 -5 -7 -5
-19 0 -25 4 -7 7 -23 8 -34 0 -38 33 -64 80 -64 52 0 75 23 75 73 0 36 -1 37
-35 37 -24 0 -35 -5 -35 -15 0 -9 9 -15 21 -15 15 0 20 -5 17 -22 -3 -20 -9
-23 -43 -23 l-40 0 0 75 c0 64 3 75 18 78 34 7 67 -7 67 -28 0 -11 7 -20 15
-20 21 0 19 43 -3 63 -27 25 -94 22 -118 -4z"/>
<path d="M592 230 c-21 -17 -24 -28 -24 -92 0 -63 3 -75 22 -90 30 -24 101
-24 123 0 21 23 22 52 2 52 -8 0 -15 -6 -15 -14 0 -26 -66 -36 -88 -14 -17 17
-16 123 2 137 23 19 70 9 81 -16 13 -30 35 -29 35 1 0 52 -91 75 -138 36z"/>
<path d="M825 203 c-10 -26 -24 -51 -31 -56 -7 -4 -11 -13 -8 -20 2 -7 -2 -32
-10 -55 -13 -37 -13 -42 0 -42 8 0 19 11 24 25 8 22 15 25 59 25 44 0 49 -3
55 -25 4 -14 13 -25 21 -25 20 0 20 2 -23 115 -44 118 -60 129 -87 58z m44
-25 c25 -66 24 -68 -8 -68 -34 0 -37 8 -19 57 14 39 16 40 27 11z"/>
<path d="M998 195 c-5 -94 2 -165 18 -165 10 0 14 13 14 45 0 40 2 45 23 45
17 0 28 -11 45 -45 12 -25 29 -45 37 -45 13 0 12 7 -6 42 -20 39 -20 43 -5 69
38 65 9 109 -71 109 l-51 0 -4 -55z m107 5 c9 -28 -11 -50 -46 -50 -26 0 -29
3 -29 35 0 33 2 35 34 35 26 0 36 -5 41 -20z"/>
</g>
</svg>
