<svg width="40" height="40" viewBox="0 0 40 40" fill="none" xmlns="http://www.w3.org/2000/svg">
<g clip-path="url(#clip0_12_344)">
<path d="M28.058 7.14987H31.972V0.00410508H24.8592C24.2658 -0.0205837 17.0328 -0.158841 15.1581 6.99022C15.131 7.06511 14.5318 8.76534 14.5318 12.737L8.02798 12.7567V20.2514L14.5401 20.2325V40.0008H24.4872V20.2498H31.0709V12.7353H24.4872V10.3709C24.4872 8.90113 25.1069 7.14987 28.058 7.14987ZM29.425 14.3804V18.603H22.8413V38.3541H16.186V18.5816L9.67391 18.6005V14.3977L16.2033 14.3788L16.186 13.5418C16.1004 9.33483 16.7003 7.56547 16.7275 7.4807C18.3454 1.32331 24.5234 1.63274 24.7884 1.6492L30.3261 1.65085V5.50477H28.058C24.2123 5.50477 22.8421 8.0181 22.8421 10.3701V14.3804H29.425Z" fill="white"/>
</g>
<defs>
<clipPath id="clip0_12_344">
<rect width="40" height="40" fill="white"/>
</clipPath>
</defs>
</svg>
