<svg width="50" height="50" viewBox="0 0 50 50" fill="none" xmlns="http://www.w3.org/2000/svg">
<path d="M25 33.3334C29.6023 33.3334 33.3333 29.6024 33.3333 25.0001C33.3333 20.3977 29.6023 16.6667 25 16.6667C20.3976 16.6667 16.6667 20.3977 16.6667 25.0001C16.6667 29.6024 20.3976 33.3334 25 33.3334Z" stroke="white" stroke-width="1.5" stroke-linecap="round" stroke-linejoin="round"/>
<path d="M6.25 33.3333V16.6667C6.25 10.9137 10.9137 6.25 16.6667 6.25H33.3333C39.0862 6.25 43.75 10.9137 43.75 16.6667V33.3333C43.75 39.0862 39.0862 43.75 33.3333 43.75H16.6667C10.9137 43.75 6.25 39.0862 6.25 33.3333Z" stroke="white" stroke-width="1.5"/>
<path d="M36.4583 13.5625L36.4792 13.5393" stroke="white" stroke-width="1.5" stroke-linecap="round" stroke-linejoin="round"/>
</svg>
