<svg width="50" height="50" viewBox="0 0 50 50" fill="none" xmlns="http://www.w3.org/2000/svg">
<path d="M40.7349 6.24388C40.21 6.26829 39.7156 6.42088 39.2761 6.59178H39.27C38.8245 6.76878 36.7065 7.65989 33.49 9.00877C30.2734 10.3637 26.0986 12.1216 21.9543 13.8672C13.678 17.3523 5.54199 20.7824 5.54199 20.7824L5.63964 20.7458C5.63964 20.7458 5.07812 20.9289 4.49218 21.3318C4.19311 21.5271 3.86352 21.7956 3.57666 22.2168C3.28979 22.6379 3.05786 23.2849 3.14331 23.9502C3.28369 25.0793 4.01611 25.7568 4.54101 26.1291C5.07202 26.5075 5.57861 26.6845 5.57861 26.6845H5.59082L13.2202 29.2541C13.562 30.3528 15.5456 36.8713 16.0217 38.3728C16.3025 39.27 16.5771 39.8315 16.9189 40.2588C17.0837 40.4785 17.279 40.6616 17.511 40.8081C17.6025 40.863 17.7002 40.9057 17.7978 40.9424C17.8284 40.9607 17.8589 40.9668 17.8955 40.9729L17.8162 40.9546C17.8406 40.9607 17.8589 40.979 17.8772 40.9851C17.9382 41.0034 17.981 41.0095 18.0603 41.0217C19.2688 41.3879 20.2393 40.6372 20.2393 40.6372L20.2942 40.5945L24.7986 36.4929L32.3486 42.2851L32.5195 42.3584C34.0942 43.0481 35.6873 42.6636 36.5295 41.9861C37.3779 41.3025 37.7075 40.4297 37.7075 40.4297L37.7624 40.2893L43.5974 10.4004C43.7622 9.66185 43.8049 8.97215 43.6218 8.30076C43.4387 7.62938 42.9687 7.00071 42.4011 6.66502C41.8274 6.32322 41.2598 6.21946 40.7349 6.24388ZM40.5762 9.44822C40.5701 9.54588 40.5884 9.53367 40.5457 9.72288V9.74119L34.7656 39.3188C34.7412 39.3615 34.6985 39.4531 34.5825 39.5447C34.4604 39.6423 34.3628 39.7034 33.8562 39.5019L24.6216 32.4219L19.043 37.5061L20.2148 30.0232C20.2148 30.0232 34.6802 16.5405 35.3027 15.9607C35.9253 15.3808 35.7178 15.2588 35.7178 15.2588C35.7605 14.5508 34.7778 15.0513 34.7778 15.0513L15.7532 26.8371L15.7471 26.8066L6.62841 23.7366V23.7304C6.62231 23.7304 6.6101 23.7243 6.604 23.7243C6.6101 23.7243 6.65283 23.706 6.65283 23.706L6.70166 23.6816L6.75048 23.6633C6.75048 23.6633 14.8926 20.2331 23.1689 16.748C27.3132 15.0024 31.488 13.2446 34.6985 11.8896C37.9089 10.5408 40.2832 9.55198 40.4175 9.49705C40.5457 9.44822 40.4846 9.44822 40.5762 9.44822Z" fill="white"/>
</svg>
