<svg width="50" height="50" viewBox="0 0 50 50" fill="none" xmlns="http://www.w3.org/2000/svg">
<g clip-path="url(#clip0_12_319)">
<path d="M47.7785 32.7815C46.6909 31.4781 45.4622 30.3143 44.2738 29.1888C43.8562 28.7932 43.4242 28.3841 43.0082 27.978C43.0081 27.9779 43.008 27.9778 43.0079 27.9777C42.4483 27.4319 42.1744 27.0445 42.1458 26.7583C42.1176 26.4771 42.3098 26.0598 42.7519 25.443C43.413 24.5152 44.1175 23.5859 44.7992 22.6873C45.405 21.8885 46.0314 21.0624 46.6318 20.2316L46.7666 20.0451C47.938 18.4238 49.1491 16.7473 49.7981 14.7044C49.9835 14.1186 50.176 13.2518 49.7117 12.4909C49.2472 11.7297 48.3862 11.5042 47.7794 11.4008C47.483 11.3501 47.2017 11.3459 46.94 11.3459L39.3417 11.3391C38.0281 11.3172 37.1167 11.9399 36.6201 13.1903C36.2226 14.1889 35.7532 15.3463 35.2093 16.4441C34.1688 18.5636 32.8466 21.0047 30.9302 23.0386L30.845 23.1292C30.7146 23.2685 30.5014 23.4962 30.3919 23.5484C30.1843 23.418 29.9447 22.6718 29.9557 22.2809C29.956 22.2712 29.9561 22.2616 29.9561 22.252L29.9493 13.4724C29.9493 13.4278 29.9462 13.3832 29.9402 13.3389C29.7698 12.0864 29.4376 10.8307 27.4552 10.4395C27.3916 10.4269 27.327 10.4207 27.2623 10.4207H19.3585C17.8714 10.4207 17.0849 11.1016 16.4543 11.8399C16.2718 12.0551 15.7869 12.6266 16.0339 13.3253C16.2839 14.0322 17.0289 14.1733 17.2734 14.2196C18.1347 14.3831 18.5801 14.8699 18.718 15.8006C18.9906 17.6089 19.024 19.5433 18.8233 21.8854C18.7673 22.5143 18.6632 22.9922 18.4953 23.3897C18.4488 23.4997 18.408 23.5679 18.3795 23.608C18.3339 23.5897 18.2631 23.5545 18.1651 23.4874C17.5598 23.0732 17.1037 22.4294 16.6626 21.8069C14.9006 19.3193 13.4186 16.5719 12.1312 13.4063C11.601 12.1091 10.6043 11.3846 9.32658 11.3659C6.8922 11.3253 4.64073 11.3263 2.4458 11.369C1.41054 11.387 0.684558 11.7128 0.287681 12.3378C-0.109683 12.9638 -0.0951325 13.7621 0.331041 14.7107C3.37754 21.4852 6.14376 26.4133 9.30002 30.6901C11.5224 33.701 13.7595 35.7911 16.3403 37.2676C19.0518 38.8189 22.1098 39.5792 25.6575 39.5791C26.0609 39.5791 26.4714 39.5692 26.8873 39.5494C29.0761 39.4497 29.9666 38.5791 30.0638 36.4473C30.1183 35.3207 30.2437 34.408 30.6787 33.615C30.8004 33.393 30.9377 33.2442 31.0459 33.2169C31.1609 33.1882 31.365 33.2586 31.5918 33.406C32.0066 33.6753 32.3637 34.0406 32.6573 34.3612C32.955 34.6871 33.2558 35.0237 33.5469 35.3492C34.1663 36.0422 34.8069 36.7589 35.478 37.4425C36.9958 38.9898 38.7456 39.6994 40.6809 39.5507L47.6345 39.554C47.6347 39.554 47.6348 39.554 47.6349 39.554C47.657 39.554 47.6791 39.5533 47.7012 39.5518C48.5032 39.4984 49.1967 39.0544 49.6039 38.3333C50.0942 37.4649 50.0868 36.365 49.5837 35.3899C49.0587 34.3761 48.3775 33.5036 47.7785 32.7815ZM47.8694 37.3539C47.7735 37.5237 47.6553 37.5546 47.5942 37.5621L40.642 37.5588C40.6418 37.5588 40.6417 37.5588 40.6414 37.5588C40.6139 37.5588 40.5865 37.5599 40.5592 37.5623C39.1896 37.6763 38.0254 37.1949 36.8996 36.0474C36.2611 35.3968 35.6363 34.6979 35.0321 34.0219C34.7376 33.6925 34.4332 33.3518 34.1274 33.017C33.7481 32.6028 33.2792 32.1267 32.6768 31.7355C31.7748 31.15 31.0274 31.1677 30.5593 31.2857C30.0961 31.4024 29.4377 31.7354 28.9323 32.6577C28.2776 33.8509 28.1332 35.1382 28.0744 36.3544C28.0404 37.0981 27.9146 37.2946 27.8621 37.3445C27.7933 37.4099 27.5632 37.525 26.7955 37.56C23.1064 37.7335 20.0105 37.0728 17.3295 35.5389C14.9973 34.2045 12.9551 32.2878 10.9029 29.5074C7.834 25.3493 5.13379 20.5341 2.14794 13.8944C2.03974 13.6539 2.00634 13.5038 1.99667 13.4234C2.07284 13.3984 2.22167 13.3655 2.48261 13.3607C4.65528 13.3186 6.88321 13.3174 9.29563 13.3577C9.6259 13.3626 10.002 13.4617 10.2867 14.1585C11.6319 17.466 13.1857 20.3444 15.0373 22.9585C15.5289 23.6523 16.1408 24.516 17.0401 25.1314C17.8638 25.6954 18.5323 25.6685 18.9481 25.5466C19.3641 25.4246 19.9415 25.0858 20.3303 24.165C20.5812 23.5716 20.7329 22.9033 20.808 22.059C21.0225 19.5538 20.9844 17.471 20.6884 15.5064C20.4797 14.0989 19.7529 13.0821 18.6081 12.5629C18.8114 12.457 19.0405 12.4128 19.3587 12.4128H27.1592C27.598 12.5113 27.685 12.6269 27.7147 12.6665C27.8411 12.8345 27.9134 13.2321 27.9575 13.5427L27.9642 22.2414C27.9466 23.0753 28.3519 24.9247 29.7317 25.4318C29.7431 25.436 29.7545 25.44 29.7659 25.4437C31.0222 25.8542 31.8531 24.9674 32.2992 24.4909L32.3787 24.4064C34.478 22.1783 35.8915 19.575 36.9959 17.3255C37.5715 16.1638 38.059 14.9623 38.4712 13.9265C38.6775 13.4071 38.8652 13.3215 39.313 13.331C39.3192 13.3312 39.3252 13.3312 39.3315 13.3312L46.9394 13.338C47.1164 13.338 47.3011 13.34 47.4443 13.3645C47.8068 13.4262 47.9561 13.5014 48.0054 13.5326C48.0104 13.5903 48.0093 13.7563 47.8997 14.1028C47.3478 15.84 46.2813 17.316 45.1523 18.8787L45.0174 19.0655C44.4308 19.8772 43.8114 20.6939 43.2125 21.4839C42.522 22.3941 41.8084 23.3353 41.1317 24.2851C39.685 26.3035 39.8122 27.643 41.6175 29.4039C42.0442 29.8204 42.4815 30.2347 42.9046 30.6353C44.1039 31.7713 45.2368 32.8443 46.2478 34.0558C46.7771 34.6939 47.3771 35.4602 47.8144 36.3047C48.0426 36.7468 47.9866 37.1462 47.8694 37.3539Z" fill="white"/>
<path d="M7.26391 16.566C7.11762 16.2766 6.9726 15.9863 6.82895 15.6955C6.5852 15.2024 5.98832 14.9999 5.49486 15.2437C5.00169 15.4873 4.79935 16.0846 5.043 16.5777C5.18939 16.874 5.33715 17.1697 5.48607 17.4646C5.66137 17.8114 6.01205 18.0114 6.37572 18.0114C6.5267 18.0114 6.68012 17.977 6.82416 17.9042C7.31528 17.656 7.51206 17.0569 7.26391 16.566Z" fill="white"/>
<path d="M13.5111 26.8988C11.8779 24.686 10.3499 22.2825 8.84017 19.5512C8.57405 19.0697 7.96799 18.8953 7.48665 19.1613C7.0053 19.4274 6.83069 20.0335 7.0968 20.5148C8.64915 23.3231 10.2231 25.7983 11.9084 28.0818C12.1038 28.3464 12.4052 28.4864 12.7106 28.4864C12.9161 28.4864 13.1233 28.4231 13.3012 28.2915C13.7437 27.965 13.8376 27.3414 13.5111 26.8988Z" fill="white"/>
</g>
<defs>
<clipPath id="clip0_12_319">
<rect width="50" height="50" fill="white"/>
</clipPath>
</defs>
</svg>
